<?xml version="1.0" encoding="UTF-8" standalone="no"?><svg xmlns="http://www.w3.org/2000/svg" xmlns:xlink="http://www.w3.org/1999/xlink" contentScriptType="application/ecmascript" contentStyleType="text/css" height="648px" preserveAspectRatio="none" style="width:497px;height:648px;" version="1.1" viewBox="0 0 497 648" width="497px" zoomAndPan="magnify"><defs><filter height="300%" id="ft6d7hukv1vvx" width="300%" x="-1" y="-1"><feGaussianBlur result="blurOut" stdDeviation="2.0"/><feColorMatrix in="blurOut" result="blurOut2" type="matrix" values="0 0 0 0 0 0 0 0 0 0 0 0 0 0 0 0 0 0 .4 0"/><feOffset dx="4.0" dy="4.0" in="blurOut2" result="blurOut3"/><feBlend in="SourceGraphic" in2="blurOut3" mode="normal"/></filter></defs><g><!--class 0--><a target="_top" xlink:actuate="onRequest" xlink:href="http://example.org/Issue" xlink:show="new" xlink:title="http://example.org/Issue" xlink:type="simple"><rect fill="#FEFECE" filter="url(#ft6d7hukv1vvx)" height="60.8047" id="0" style="stroke: #A80036; stroke-width: 1.5;" width="69" x="114.5" y="8"/><ellipse cx="129.5" cy="24" fill="#FF7700" rx="11" ry="11" style="stroke: #A80036; stroke-width: 1.0;"/><path d="M128.9844,24.5625 Q127.125,23.8594 126.4688,23.0938 Q125.8281,22.3125 125.8281,21 Q125.8281,19.3125 126.9063,18.3438 Q127.9844,17.375 129.8594,17.375 Q130.7188,17.375 131.5625,17.5781 Q132.4219,17.7656 133.2656,18.1563 L133.2656,20.5469 Q132.4844,19.9844 131.6563,19.7031 Q130.8438,19.4063 130.0469,19.4063 Q129.1719,19.4063 128.6875,19.7656 Q128.2188,20.125 128.2188,20.7813 Q128.2188,21.2969 128.5625,21.6406 Q128.9063,21.9688 130,22.375 L131.0625,22.7813 Q132.5469,23.3281 133.25,24.2344 Q133.9688,25.1406 133.9688,26.5156 Q133.9688,28.3906 132.8594,29.3125 Q131.75,30.2344 129.5,30.2344 Q128.5781,30.2344 127.6563,30.0156 Q126.7344,29.7969 125.875,29.375 L125.875,26.8438 Q126.8438,27.5313 127.7656,27.875 Q128.6875,28.2188 129.5781,28.2188 Q130.4844,28.2188 130.9844,27.8125 Q131.4844,27.3906 131.4844,26.6563 Q131.4844,26.0938 131.1406,25.6875 Q130.8125,25.2656 130.1875,25.0156 L128.9844,24.5625 Z "/><text fill="#000000" font-family="sans-serif" font-size="12" lengthAdjust="spacingAndGlyphs" textLength="37" x="143.5" y="28.1543">:Issue</text><line style="stroke: #A80036; stroke-width: 1.5;" x1="115.5" x2="182.5" y1="40" y2="40"/><text fill="#000000" font-family="sans-serif" font-size="11" lengthAdjust="spacingAndGlyphs" textLength="39" x="120.5" y="54.2104">Closed</text><line style="stroke: #A80036; stroke-width: 1.0;" x1="115.5" x2="182.5" y1="60.8047" y2="60.8047"/></a><!--class 5--><a target="_top" xlink:actuate="onRequest" xlink:href="http://example.org/Programmer" xlink:show="new" xlink:title="http://example.org/Programmer" xlink:type="simple"><rect fill="#FEFECE" filter="url(#ft6d7hukv1vvx)" height="60.8047" id="5" style="stroke: #A80036; stroke-width: 1.5;" width="186" x="156" y="567"/><ellipse cx="204.25" cy="583" fill="#FF7700" rx="11" ry="11" style="stroke: #A80036; stroke-width: 1.0;"/><path d="M203.7344,583.5625 Q201.875,582.8594 201.2188,582.0938 Q200.5781,581.3125 200.5781,580 Q200.5781,578.3125 201.6563,577.3438 Q202.7344,576.375 204.6094,576.375 Q205.4688,576.375 206.3125,576.5781 Q207.1719,576.7656 208.0156,577.1563 L208.0156,579.5469 Q207.2344,578.9844 206.4063,578.7031 Q205.5938,578.4063 204.7969,578.4063 Q203.9219,578.4063 203.4375,578.7656 Q202.9688,579.125 202.9688,579.7813 Q202.9688,580.2969 203.3125,580.6406 Q203.6563,580.9688 204.75,581.375 L205.8125,581.7813 Q207.2969,582.3281 208,583.2344 Q208.7188,584.1406 208.7188,585.5156 Q208.7188,587.3906 207.6094,588.3125 Q206.5,589.2344 204.25,589.2344 Q203.3281,589.2344 202.4063,589.0156 Q201.4844,588.7969 200.625,588.375 L200.625,585.8438 Q201.5938,586.5313 202.5156,586.875 Q203.4375,587.2188 204.3281,587.2188 Q205.2344,587.2188 205.7344,586.8125 Q206.2344,586.3906 206.2344,585.6563 Q206.2344,585.0938 205.8906,584.6875 Q205.5625,584.2656 204.9375,584.0156 L203.7344,583.5625 Z "/><text fill="#000000" font-family="sans-serif" font-size="12" lengthAdjust="spacingAndGlyphs" textLength="81" x="224.75" y="587.1543">:Programmer</text><line style="stroke: #A80036; stroke-width: 1.5;" x1="157" x2="341" y1="599" y2="599"/></a><a target="_top" xlink:actuate="onRequest" xlink:href="http://example.org/experience" xlink:show="new" xlink:title="http://example.org/experience" xlink:type="simple"><text fill="#0000FF" font-family="sans-serif" font-size="11" lengthAdjust="spacingAndGlyphs" text-decoration="underline" textLength="66" x="162" y="613.2104">:experience</text><line style="stroke: #0000FF; stroke-width: 1.0;" x1="162" x2="228" y1="615.2104" y2="615.2104"/></a><text fill="#000000" font-family="sans-serif" font-size="11" lengthAdjust="spacingAndGlyphs" textLength="12" x="232" y="613.2104">: [</text><a target="_top" xlink:actuate="onRequest" xlink:href="http://example.org/senior" xlink:show="new" xlink:title="http://example.org/senior" xlink:type="simple"><text fill="#0000FF" font-family="sans-serif" font-size="11" lengthAdjust="spacingAndGlyphs" text-decoration="underline" textLength="40" x="248" y="613.2104">:senior</text><line style="stroke: #0000FF; stroke-width: 1.0;" x1="248" x2="288" y1="615.2104" y2="615.2104"/></a><text fill="#000000" font-family="sans-serif" font-size="11" lengthAdjust="spacingAndGlyphs" textLength="0" x="292" y="613.2104"/><a target="_top" xlink:actuate="onRequest" xlink:href="http://example.org/junior" xlink:show="new" xlink:title="http://example.org/junior" xlink:type="simple"><text fill="#0000FF" font-family="sans-serif" font-size="11" lengthAdjust="spacingAndGlyphs" text-decoration="underline" textLength="36" x="292" y="613.2104">:junior</text><line style="stroke: #0000FF; stroke-width: 1.0;" x1="292" x2="328" y1="615.2104" y2="615.2104"/></a><text fill="#000000" font-family="sans-serif" font-size="11" lengthAdjust="spacingAndGlyphs" textLength="4" x="332" y="613.2104">]</text><line style="stroke: #A80036; stroke-width: 1.0;" x1="157" x2="341" y1="619.8047" y2="619.8047"/><!--class 1--><a target="_top" xlink:actuate="onRequest" xlink:href="http://example.org/User" xlink:show="new" xlink:title="http://example.org/User" xlink:type="simple"><rect fill="#FEFECE" filter="url(#ft6d7hukv1vvx)" height="68.8047" id="1" style="stroke: #A80036; stroke-width: 1.5;" width="72" x="245" y="146"/><ellipse cx="263.15" cy="162" fill="#FF7700" rx="11" ry="11" style="stroke: #A80036; stroke-width: 1.0;"/><path d="M262.6344,162.5625 Q260.775,161.8594 260.1188,161.0938 Q259.4781,160.3125 259.4781,159 Q259.4781,157.3125 260.5563,156.3438 Q261.6344,155.375 263.5094,155.375 Q264.3688,155.375 265.2125,155.5781 Q266.0719,155.7656 266.9156,156.1563 L266.9156,158.5469 Q266.1344,157.9844 265.3063,157.7031 Q264.4938,157.4063 263.6969,157.4063 Q262.8219,157.4063 262.3375,157.7656 Q261.8688,158.125 261.8688,158.7813 Q261.8688,159.2969 262.2125,159.6406 Q262.5563,159.9688 263.65,160.375 L264.7125,160.7813 Q266.1969,161.3281 266.9,162.2344 Q267.6188,163.1406 267.6188,164.5156 Q267.6188,166.3906 266.5094,167.3125 Q265.4,168.2344 263.15,168.2344 Q262.2281,168.2344 261.3063,168.0156 Q260.3844,167.7969 259.525,167.375 L259.525,164.8438 Q260.4938,165.5313 261.4156,165.875 Q262.3375,166.2188 263.2281,166.2188 Q264.1344,166.2188 264.6344,165.8125 Q265.1344,165.3906 265.1344,164.6563 Q265.1344,164.0938 264.7906,163.6875 Q264.4625,163.2656 263.8375,163.0156 L262.6344,162.5625 Z "/><text fill="#000000" font-family="sans-serif" font-size="12" lengthAdjust="spacingAndGlyphs" textLength="33" x="277.85" y="166.1543">:User</text><line style="stroke: #A80036; stroke-width: 1.5;" x1="246" x2="316" y1="178" y2="178"/></a><a target="_top" xlink:actuate="onRequest" xlink:href="http://example.org/email" xlink:show="new" xlink:title="http://example.org/email" xlink:type="simple"><text fill="#0000FF" font-family="sans-serif" font-size="11" lengthAdjust="spacingAndGlyphs" text-decoration="underline" textLength="35" x="251" y="192.2104">:email</text><line style="stroke: #0000FF; stroke-width: 1.0;" x1="251" x2="286" y1="194.2104" y2="194.2104"/></a><text fill="#000000" font-family="sans-serif" font-size="11" lengthAdjust="spacingAndGlyphs" textLength="21" x="290" y="192.2104">: IRI</text><line style="stroke: #A80036; stroke-width: 1.0;" x1="246" x2="316" y1="198.8047" y2="198.8047"/><line style="stroke: #A80036; stroke-width: 1.0;" x1="246" x2="316" y1="206.8047" y2="206.8047"/><!--class 6--><a target="_top" xlink:actuate="onRequest" xlink:href="http://example.org/SolvedIssue" xlink:show="new" xlink:title="http://example.org/SolvedIssue" xlink:type="simple"><rect fill="#FEFECE" filter="url(#ft6d7hukv1vvx)" height="60.8047" id="6" style="stroke: #A80036; stroke-width: 1.5;" width="110" x="6" y="245"/><ellipse cx="21" cy="261" fill="#FF7700" rx="11" ry="11" style="stroke: #A80036; stroke-width: 1.0;"/><path d="M20.4844,261.5625 Q18.625,260.8594 17.9688,260.0938 Q17.3281,259.3125 17.3281,258 Q17.3281,256.3125 18.4063,255.3438 Q19.4844,254.375 21.3594,254.375 Q22.2188,254.375 23.0625,254.5781 Q23.9219,254.7656 24.7656,255.1563 L24.7656,257.5469 Q23.9844,256.9844 23.1563,256.7031 Q22.3438,256.4063 21.5469,256.4063 Q20.6719,256.4063 20.1875,256.7656 Q19.7188,257.125 19.7188,257.7813 Q19.7188,258.2969 20.0625,258.6406 Q20.4063,258.9688 21.5,259.375 L22.5625,259.7813 Q24.0469,260.3281 24.75,261.2344 Q25.4688,262.1406 25.4688,263.5156 Q25.4688,265.3906 24.3594,266.3125 Q23.25,267.2344 21,267.2344 Q20.0781,267.2344 19.1563,267.0156 Q18.2344,266.7969 17.375,266.375 L17.375,263.8438 Q18.3438,264.5313 19.2656,264.875 Q20.1875,265.2188 21.0781,265.2188 Q21.9844,265.2188 22.4844,264.8125 Q22.9844,264.3906 22.9844,263.6563 Q22.9844,263.0938 22.6406,262.6875 Q22.3125,262.2656 21.6875,262.0156 L20.4844,261.5625 Z "/><text fill="#000000" font-family="sans-serif" font-size="12" lengthAdjust="spacingAndGlyphs" textLength="78" x="35" y="265.1543">:SolvedIssue</text><line style="stroke: #A80036; stroke-width: 1.5;" x1="7" x2="115" y1="277" y2="277"/></a><a target="_top" xlink:actuate="onRequest" xlink:href="http://example.org/solved" xlink:show="new" xlink:title="http://example.org/solved" xlink:type="simple"><text fill="#0000FF" font-family="sans-serif" font-size="11" lengthAdjust="spacingAndGlyphs" text-decoration="underline" textLength="41" x="12" y="291.2104">:solved</text><line style="stroke: #0000FF; stroke-width: 1.0;" x1="12" x2="53" y1="293.2104" y2="293.2104"/></a><text fill="#000000" font-family="sans-serif" font-size="11" lengthAdjust="spacingAndGlyphs" textLength="12" x="57" y="291.2104">: .</text><line style="stroke: #A80036; stroke-width: 1.0;" x1="7" x2="115" y1="297.8047" y2="297.8047"/><!--class 2--><a target="_top" xlink:actuate="onRequest" xlink:href="http://example.org/Person" xlink:show="new" xlink:title="http://example.org/Person" xlink:type="simple"><rect fill="#FEFECE" filter="url(#ft6d7hukv1vvx)" height="60.8047" id="2" style="stroke: #A80036; stroke-width: 1.5;" width="148" x="175" y="336"/><ellipse cx="220.75" cy="352" fill="#FF7700" rx="11" ry="11" style="stroke: #A80036; stroke-width: 1.0;"/><path d="M220.2344,352.5625 Q218.375,351.8594 217.7188,351.0938 Q217.0781,350.3125 217.0781,349 Q217.0781,347.3125 218.1563,346.3438 Q219.2344,345.375 221.1094,345.375 Q221.9688,345.375 222.8125,345.5781 Q223.6719,345.7656 224.5156,346.1563 L224.5156,348.5469 Q223.7344,347.9844 222.9063,347.7031 Q222.0938,347.4063 221.2969,347.4063 Q220.4219,347.4063 219.9375,347.7656 Q219.4688,348.125 219.4688,348.7813 Q219.4688,349.2969 219.8125,349.6406 Q220.1563,349.9688 221.25,350.375 L222.3125,350.7813 Q223.7969,351.3281 224.5,352.2344 Q225.2188,353.1406 225.2188,354.5156 Q225.2188,356.3906 224.1094,357.3125 Q223,358.2344 220.75,358.2344 Q219.8281,358.2344 218.9063,358.0156 Q217.9844,357.7969 217.125,357.375 L217.125,354.8438 Q218.0938,355.5313 219.0156,355.875 Q219.9375,356.2188 220.8281,356.2188 Q221.7344,356.2188 222.2344,355.8125 Q222.7344,355.3906 222.7344,354.6563 Q222.7344,354.0938 222.3906,353.6875 Q222.0625,353.2656 221.4375,353.0156 L220.2344,352.5625 Z "/><text fill="#000000" font-family="sans-serif" font-size="12" lengthAdjust="spacingAndGlyphs" textLength="48" x="241.25" y="356.1543">:Person</text><line style="stroke: #A80036; stroke-width: 1.5;" x1="176" x2="322" y1="368" y2="368"/><text fill="#000000" font-family="sans-serif" font-size="11" lengthAdjust="spacingAndGlyphs" textLength="136" x="181" y="382.2104">OneOf not implemented</text><line style="stroke: #A80036; stroke-width: 1.0;" x1="176" x2="322" y1="388.8047" y2="388.8047"/></a><!--class 3--><a target="_top" xlink:actuate="onRequest" xlink:href="http://example.org/InternalRep" xlink:show="new" xlink:title="http://example.org/InternalRep" xlink:type="simple"><rect fill="#FEFECE" filter="url(#ft6d7hukv1vvx)" height="60.8047" id="3" style="stroke: #A80036; stroke-width: 1.5;" width="119" x="358.5" y="336"/><ellipse cx="378.45" cy="352" fill="#FF7700" rx="11" ry="11" style="stroke: #A80036; stroke-width: 1.0;"/><path d="M377.9344,352.5625 Q376.075,351.8594 375.4188,351.0938 Q374.7781,350.3125 374.7781,349 Q374.7781,347.3125 375.8563,346.3438 Q376.9344,345.375 378.8094,345.375 Q379.6688,345.375 380.5125,345.5781 Q381.3719,345.7656 382.2156,346.1563 L382.2156,348.5469 Q381.4344,347.9844 380.6063,347.7031 Q379.7938,347.4063 378.9969,347.4063 Q378.1219,347.4063 377.6375,347.7656 Q377.1688,348.125 377.1688,348.7813 Q377.1688,349.2969 377.5125,349.6406 Q377.8563,349.9688 378.95,350.375 L380.0125,350.7813 Q381.4969,351.3281 382.2,352.2344 Q382.9188,353.1406 382.9188,354.5156 Q382.9188,356.3906 381.8094,357.3125 Q380.7,358.2344 378.45,358.2344 Q377.5281,358.2344 376.6063,358.0156 Q375.6844,357.7969 374.825,357.375 L374.825,354.8438 Q375.7938,355.5313 376.7156,355.875 Q377.6375,356.2188 378.5281,356.2188 Q379.4344,356.2188 379.9344,355.8125 Q380.4344,355.3906 380.4344,354.6563 Q380.4344,354.0938 380.0906,353.6875 Q379.7625,353.2656 379.1375,353.0156 L377.9344,352.5625 Z "/><text fill="#000000" font-family="sans-serif" font-size="12" lengthAdjust="spacingAndGlyphs" textLength="76" x="393.55" y="356.1543">:InternalRep</text><line style="stroke: #A80036; stroke-width: 1.5;" x1="359.5" x2="476.5" y1="368" y2="368"/></a><a target="_top" xlink:actuate="onRequest" xlink:href="http://example.org/code" xlink:show="new" xlink:title="http://example.org/code" xlink:type="simple"><text fill="#0000FF" font-family="sans-serif" font-size="11" lengthAdjust="spacingAndGlyphs" text-decoration="underline" textLength="31" x="364.5" y="382.2104">:code</text><line style="stroke: #0000FF; stroke-width: 1.0;" x1="364.5" x2="395.5" y1="384.2104" y2="384.2104"/></a><text fill="#000000" font-family="sans-serif" font-size="11" lengthAdjust="spacingAndGlyphs" textLength="4" x="399.5" y="382.2104">:</text><a target="_top" xlink:actuate="onRequest" xlink:href="http://www.w3.org/2001/XMLSchema#integer" xlink:show="new" xlink:title="http://www.w3.org/2001/XMLSchema#integer" xlink:type="simple"><text fill="#0000FF" font-family="sans-serif" font-size="11" lengthAdjust="spacingAndGlyphs" text-decoration="underline" textLength="64" x="407.5" y="382.2104">xsd:integer</text><line style="stroke: #0000FF; stroke-width: 1.0;" x1="407.5" x2="471.5" y1="384.2104" y2="384.2104"/></a><line style="stroke: #A80036; stroke-width: 1.0;" x1="359.5" x2="476.5" y1="388.8047" y2="388.8047"/><!--class 4--><a target="_top" xlink:actuate="onRequest" xlink:href="http://example.org/Employee" xlink:show="new" xlink:title="http://example.org/Employee" xlink:type="simple"><rect fill="#FEFECE" filter="url(#ft6d7hukv1vvx)" height="48" id="4" style="stroke: #A80036; stroke-width: 1.5;" width="96" x="201" y="458"/><ellipse cx="216" cy="474" fill="#FF7700" rx="11" ry="11" style="stroke: #A80036; stroke-width: 1.0;"/><path d="M215.4844,474.5625 Q213.625,473.8594 212.9688,473.0938 Q212.3281,472.3125 212.3281,471 Q212.3281,469.3125 213.4063,468.3438 Q214.4844,467.375 216.3594,467.375 Q217.2188,467.375 218.0625,467.5781 Q218.9219,467.7656 219.7656,468.1563 L219.7656,470.5469 Q218.9844,469.9844 218.1563,469.7031 Q217.3438,469.4063 216.5469,469.4063 Q215.6719,469.4063 215.1875,469.7656 Q214.7188,470.125 214.7188,470.7813 Q214.7188,471.2969 215.0625,471.6406 Q215.4063,471.9688 216.5,472.375 L217.5625,472.7813 Q219.0469,473.3281 219.75,474.2344 Q220.4688,475.1406 220.4688,476.5156 Q220.4688,478.3906 219.3594,479.3125 Q218.25,480.2344 216,480.2344 Q215.0781,480.2344 214.1563,480.0156 Q213.2344,479.7969 212.375,479.375 L212.375,476.8438 Q213.3438,477.5313 214.2656,477.875 Q215.1875,478.2188 216.0781,478.2188 Q216.9844,478.2188 217.4844,477.8125 Q217.9844,477.3906 217.9844,476.6563 Q217.9844,476.0938 217.6406,475.6875 Q217.3125,475.2656 216.6875,475.0156 L215.4844,474.5625 Z "/><text fill="#000000" font-family="sans-serif" font-size="12" lengthAdjust="spacingAndGlyphs" textLength="64" x="230" y="478.1543">:Employee</text><line style="stroke: #A80036; stroke-width: 1.5;" x1="202" x2="296" y1="490" y2="490"/><line style="stroke: #A80036; stroke-width: 1.5;" x1="202" x2="296" y1="498" y2="498"/></a><!--link 6 to 4--><path d="M57.8521,306.098 C56.6325,332.401 58.906,370.656 78,397 C105.9581,435.574 156.587,457.333 195.525,468.987 " fill="none" id="6-4" style="stroke: #A80036; stroke-width: 1.0;"/><polygon fill="#A80036" points="200.696,470.496,193.1777,464.1339,195.8964,469.0947,190.9356,471.8133,200.696,470.496" style="stroke: #A80036; stroke-width: 1.0;"/><a target="_top" xlink:actuate="onRequest" xlink:href="http://example.org/reproduced" xlink:show="new" xlink:title="http://example.org/reproduced" xlink:type="simple"><text fill="#0000FF" font-family="sans-serif" font-size="13" lengthAdjust="spacingAndGlyphs" text-decoration="underline" textLength="77" x="79" y="371.0669">:reproduced</text><line style="stroke: #0000FF; stroke-width: 1.0;" x1="79" x2="156" y1="373.0669" y2="373.0669"/></a><text fill="#000000" font-family="sans-serif" font-size="13" lengthAdjust="spacingAndGlyphs" textLength="0" x="192.9932" y="464.6631"/><!--link 1 to 2--><path d="M275.131,215.248 C270.225,243.454 263.162,284.068 257.615,315.962 " fill="none" id="1-2" style="stroke: #A80036; stroke-width: 1.0;"/><polygon fill="none" points="264.469,317.41,254.145,335.915,250.676,315.011,264.469,317.41" style="stroke: #A80036; stroke-width: 1.0;"/><!--link 1 to 1--><path d="M317.166,167.436 C335.532,165.528 352,169.883 352,180.5 C352,190.122 338.475,194.6 322.27,193.936 " fill="none" id="1-1" style="stroke: #A80036; stroke-width: 1.0;"/><polygon fill="#A80036" points="317.166,193.564,325.852,198.2066,322.1528,193.9268,326.4325,190.2276,317.166,193.564" style="stroke: #A80036; stroke-width: 1.0;"/><a target="_top" xlink:actuate="onRequest" xlink:href="http://example.org/knows" xlink:show="new" xlink:title="http://example.org/knows" xlink:type="simple"><text fill="#0000FF" font-family="sans-serif" font-size="13" lengthAdjust="spacingAndGlyphs" text-decoration="underline" textLength="43" x="358" y="185.0669">:knows</text><line style="stroke: #0000FF; stroke-width: 1.0;" x1="358" x2="401" y1="187.0669" y2="187.0669"/></a><text fill="#000000" font-family="sans-serif" font-size="13" lengthAdjust="spacingAndGlyphs" textLength="7" x="324.9752" y="191.7586">*</text><!--link 0 to 2--><path d="M148.512,69.085 C148.723,104.552 151.631,165.412 167,215 C180.265,257.801 206.3,302.326 225.49,331.735 " fill="none" id="0-2" style="stroke: #A80036; stroke-width: 1.0;"/><polygon fill="#A80036" points="228.269,335.963,226.6657,326.2455,225.5216,331.7855,219.9817,330.6414,228.269,335.963" style="stroke: #A80036; stroke-width: 1.0;"/><a target="_top" xlink:actuate="onRequest" xlink:href="http://example.org/reported" xlink:show="new" xlink:title="http://example.org/reported" xlink:type="simple"><text fill="#0000FF" font-family="sans-serif" font-size="13" lengthAdjust="spacingAndGlyphs" text-decoration="underline" textLength="59" x="168" y="185.0669">:reported</text><line style="stroke: #0000FF; stroke-width: 1.0;" x1="168" x2="227" y1="187.0669" y2="187.0669"/></a><text fill="#000000" font-family="sans-serif" font-size="13" lengthAdjust="spacingAndGlyphs" textLength="0" x="223.2966" y="324.7452"/><!--link 0 to 1--><path d="M176.994,69.19 C197.025,90.436 224.141,119.195 245.664,142.022 " fill="none" id="0-1" style="stroke: #A80036; stroke-width: 1.0;"/><polygon fill="#A80036" points="249.341,145.922,246.0762,136.63,245.9105,142.2844,240.2561,142.1188,249.341,145.922" style="stroke: #A80036; stroke-width: 1.0;"/><a target="_top" xlink:actuate="onRequest" xlink:href="http://example.org/reproduced" xlink:show="new" xlink:title="http://example.org/reproduced" xlink:type="simple"><text fill="#0000FF" font-family="sans-serif" font-size="13" lengthAdjust="spacingAndGlyphs" text-decoration="underline" textLength="77" x="220" y="112.0669">:reproduced</text><line style="stroke: #0000FF; stroke-width: 1.0;" x1="220" x2="297" y1="114.0669" y2="114.0669"/></a><text fill="#000000" font-family="sans-serif" font-size="13" lengthAdjust="spacingAndGlyphs" textLength="0" x="242.9248" y="134.9991"/><!--link 0 to 0--><path d="M183.687,26.236 C201.95,24.252 218.5,28.34 218.5,38.5 C218.5,47.708 204.908,51.928 188.766,51.162 " fill="none" id="0-0" style="stroke: #A80036; stroke-width: 1.0;"/><polygon fill="#A80036" points="183.687,50.764,192.3475,55.4539,188.6718,51.154,192.9716,47.4783,183.687,50.764" style="stroke: #A80036; stroke-width: 1.0;"/><a target="_top" xlink:actuate="onRequest" xlink:href="http://example.org/related" xlink:show="new" xlink:title="http://example.org/related" xlink:type="simple"><text fill="#0000FF" font-family="sans-serif" font-size="13" lengthAdjust="spacingAndGlyphs" text-decoration="underline" textLength="49" x="224.5" y="43.0669">:related</text><line style="stroke: #0000FF; stroke-width: 1.0;" x1="224.5" x2="273.5" y1="45.0669" y2="45.0669"/></a><text fill="#000000" font-family="sans-serif" font-size="13" lengthAdjust="spacingAndGlyphs" textLength="0" x="195.7123" y="48.9089"/><!--link 4 to 5--><path d="M249,526.654 C249,540.0816 249,554.5435 249,566.8055 " fill="none" id="4-5" style="stroke: #A80036; stroke-width: 1.0;"/><polygon fill="none" points="242,526.242,249,506.242,256,526.242,242,526.242" style="stroke: #A80036; stroke-width: 1.0;"/><!--link 0 to 6--><path d="M127.627,87.693 C126.032,91.506 124.472,95.309 123,99 C102.8281,149.575 82.3503,209.605 70.7083,244.732 " fill="none" id="0-6" style="stroke: #A80036; stroke-width: 1.0;"/><polygon fill="none" points="121.332,84.613,135.658,69,134.195,90.139,121.332,84.613" style="stroke: #A80036; stroke-width: 1.0;"/><!--link 2 to 4--><path d="M249,417.427 C249,431.454 249,446.046 249,457.706 " fill="none" id="2-4" style="stroke: #A80036; stroke-width: 1.0;"/><polygon fill="none" points="242,417.025,249,397.024,256,417.024,242,417.025" style="stroke: #A80036; stroke-width: 1.0;"/><!--link 3 to 4--><path d="M357.422,408.184 C332.554,424.886 304.673,443.61 283.412,457.889 " fill="none" id="3-4" style="stroke: #A80036; stroke-width: 1.0;"/><polygon fill="none" points="353.533,402.364,374.038,397.024,361.338,413.986,353.533,402.364" style="stroke: #A80036; stroke-width: 1.0;"/><text fill="#888888" font-family="sans-serif" font-size="10" lengthAdjust="spacingAndGlyphs" textLength="67" x="383" y="647.2822">Generated by</text><a target="_top" xlink:actuate="onRequest" xlink:href="http://rdfshape.weso.es" xlink:show="new" xlink:title="http://rdfshape.weso.es" xlink:type="simple"><text fill="#0000FF" font-family="sans-serif" font-size="10" lengthAdjust="spacingAndGlyphs" text-decoration="underline" textLength="43" x="453" y="647.2822">rdfshape</text><line style="stroke: #0000FF; stroke-width: 1.0;" x1="453" x2="496" y1="649.2822" y2="649.2822"/></a><!--
@startuml
class ":Issue" as 0 <<(S,#FF7700)>> [[http://example.org/Issue :Issue]] {
Closed
- -
}
class ":Programmer" as 5 <<(S,#FF7700)>> [[http://example.org/Programmer :Programmer]] {
[[http://example.org/experience :experience]] : [ [[http://example.org/senior :senior]] [[http://example.org/junior :junior]] ]  
- -
}
class ":User" as 1 <<(S,#FF7700)>> [[http://example.org/User :User]] {
[[http://example.org/email :email]] : IRI  
- -
- -
}
class ":SolvedIssue" as 6 <<(S,#FF7700)>> [[http://example.org/SolvedIssue :SolvedIssue]] {
[[http://example.org/solved :solved]] : .  
- -
}
class ":Person" as 2 <<(S,#FF7700)>> [[http://example.org/Person :Person]] {
OneOf not implemented
- -
}
class ":InternalRep" as 3 <<(S,#FF7700)>> [[http://example.org/InternalRep :InternalRep]] {
[[http://example.org/code :code]] : [[http://www.w3.org/2001/XMLSchema#integer xsd:integer]]   
- -
}
class ":Employee" as 4 <<(S,#FF7700)>> [[http://example.org/Employee :Employee]] {
}
6 - -> " " 4 : [[http://example.org/reproduced :reproduced]]
1 - -|> 2 
1 - -> "*" 1 : [[http://example.org/knows :knows]]
0 - -> " " 2 : [[http://example.org/reported :reported]]
0 - -> " " 1 : [[http://example.org/reproduced :reproduced]]
0 - -> " " 0 : [[http://example.org/related :related]]
4 <|- -5
0 <|- -6
2 <|- -4
3 <|- -4

right footer Generated by [[http://rdfshape.weso.es rdfshape]]
@enduml

PlantUML version 1.2017.12(Wed Apr 26 18:06:36 CEST 2017)
(GPL source distribution)
Java Runtime: Java(TM) SE Runtime Environment
JVM: Java HotSpot(TM) 64-Bit Server VM
Java Version: 12.0.2+10
Operating System: Linux
OS Version: 4.15.0-72-generic
Default Encoding: UTF-8
Language: en
Country: US
--></g></svg>